<svg width="528" height="689" xmlns="http://www.w3.org/2000/svg" xmlns:xlink="http://www.w3.org/1999/xlink"><defs><path d="M66.347 233.62l4.547-17.125 4.563 17.125h4.906l5.562-22.906H81.27l-3.516 16-4.015-16h-5.5l-4.188 15.734-3.453-15.734h-4.734l5.469 22.906h5.015zm26.422 0v-22.906h-4.625v22.906h4.625zm12.219 0c2.948-.02 4.807-.073 5.578-.156 1.23-.136 2.263-.498 3.101-1.086.839-.589 1.5-1.375 1.985-2.36a6.808 6.808 0 00.726-3.039c0-1.323-.375-2.474-1.125-3.453-.75-.979-1.823-1.672-3.218-2.078a5.374 5.374 0 002.351-2.016c.578-.895.867-1.88.867-2.953 0-.99-.234-1.882-.703-2.68-.468-.796-1.054-1.434-1.758-1.913a5.958 5.958 0 00-2.39-.946c-.89-.15-2.242-.226-4.055-.226h-9.156v22.906h7.797zm-.14-13.797h-3.032v-5.297h2.976c1.987.003 3.198.029 3.633.078.771.094 1.352.362 1.742.805.391.443.586 1.018.586 1.727 0 .74-.226 1.336-.68 1.789-.452.453-1.075.726-1.866.82-.438.052-1.558.078-3.36.078zm1.555 9.937h-4.587v-6.124h3.734c2.104 0 3.472.109 4.102.328.63.219 1.112.567 1.445 1.047.333.479.5 1.062.5 1.75 0 .812-.216 1.46-.648 1.945-.433.484-.992.789-1.68.914-.448.094-1.505.14-3.172.14h.306zm16.46 3.86l1.89-5.203h9.157l2 5.203h5.03l-9.171-22.906h-4.89l-8.922 22.906h4.906zm9.562-9.063h-6.25l3.094-8.5 3.156 8.5zm17.469 9.063l4.547-17.125 4.562 17.125h4.907l5.562-22.906h-4.656l-3.516 16-4.015-16h-5.5l-4.188 15.734-3.453-15.734h-4.734l5.468 22.906h5.016zm22.75 0l1.89-5.203h9.157l2 5.203h5.031l-9.172-22.906h-4.89l-8.922 22.906h4.906zm9.563-9.063h-6.25l3.093-8.5 3.157 8.5z" id="a"/><path d="M208.019 233.39v-6.922l3.75-3.828 6.297 10.75h5.984l-9.093-13.984 8.625-8.922h-6.22l-9.343 10.172v-10.172h-4.625v22.906h4.625zm21 0l1.89-5.203h9.157l2 5.203h5.031l-9.172-22.906h-4.89l-8.922 22.906h4.906zm9.563-9.063h-6.25l3.093-8.5 3.157 8.5zm15.609 9.063v-9.563h.937c1.063 0 1.839.086 2.329.258.49.172.953.49 1.39.953.438.464 1.25 1.586 2.438 3.368l3.343 4.984h5.532l-2.797-4.469c-1.104-1.781-1.982-3.02-2.633-3.719-.651-.697-1.477-1.338-2.477-1.921 2.01-.292 3.521-.998 4.532-2.118 1.01-1.12 1.515-2.539 1.515-4.257 0-1.355-.333-2.558-1-3.61-.666-1.052-1.554-1.784-2.664-2.195-1.11-.412-2.888-.617-5.336-.617h-9.734v22.906h4.625zm3.422-13.219h-3.422v-5.812h3.915c1.692.003 2.715.029 3.07.078.75.125 1.33.424 1.741.898.412.474.618 1.097.618 1.867 0 .688-.157 1.26-.47 1.72a2.491 2.491 0 01-1.296.968c-.552.188-1.937.281-4.156.281zm24.828 13.219v-19.031h6.781v-3.875H271.02v3.875h6.797v19.031h4.625zm9.969 0l1.89-5.203h9.157l2 5.203h5.03l-9.171-22.906h-4.89l-8.923 22.906h4.907zm9.562-9.063h-6.25l3.094-8.5 3.156 8.5z" id="b"/><path d="M327.972 233.86v-9.563h.938c1.062 0 1.838.086 2.328.258.49.172.953.49 1.39.953.438.464 1.25 1.586 2.438 3.368l3.344 4.984h5.53l-2.796-4.469c-1.104-1.781-1.982-3.02-2.633-3.718-.65-.698-1.476-1.339-2.476-1.922 2.01-.292 3.52-.998 4.53-2.118 1.011-1.12 1.517-2.539 1.517-4.257 0-1.355-.334-2.558-1-3.61-.667-1.052-1.555-1.784-2.665-2.195-1.109-.412-2.888-.617-5.335-.617h-9.735v22.906h4.625zm3.422-13.219h-3.422v-5.812h3.915c1.692.003 2.715.029 3.07.078.75.125 1.33.424 1.742.898.411.474.617 1.097.617 1.868 0 .687-.156 1.26-.469 1.718a2.491 2.491 0 01-1.297.969c-.552.188-1.937.281-4.156.281zm17.625 13.219l1.89-5.203h9.157l2 5.203h5.031l-9.172-22.906h-4.89l-8.922 22.906h4.906zm9.563-9.063h-6.25l3.093-8.5 3.157 8.5zm15.609 9.063v-10.016h9.062v10.016h4.625v-22.906h-4.625v9.015h-9.062v-9.015h-4.625v22.906h4.625zm21.047 0l1.89-5.203h9.157l2 5.203h5.03l-9.171-22.906h-4.89l-8.922 22.906h4.906zm9.562-9.063h-6.25l3.094-8.5 3.156 8.5zm15.61 9.063v-9.563h.937c1.063 0 1.839.086 2.328.258.49.172.953.49 1.39.953.438.464 1.25 1.586 2.438 3.368l3.344 4.984h5.531l-2.796-4.469c-1.105-1.781-1.982-3.02-2.633-3.718s-1.477-1.339-2.477-1.922c2.01-.292 3.521-.998 4.531-2.118 1.01-1.12 1.516-2.539 1.516-4.257 0-1.355-.333-2.558-1-3.61s-1.555-1.784-2.664-2.195c-1.11-.412-2.888-.617-5.336-.617h-9.734v22.906h4.625zm3.422-13.219h-3.422v-5.812h3.915c1.692.003 2.715.029 3.069.078.75.125 1.33.424 1.742.898.412.474.617 1.097.617 1.868 0 .687-.156 1.26-.468 1.718a2.491 2.491 0 01-1.297.969c-.552.188-1.938.281-4.156.281zm20.328 13.61c1.927 0 3.479-.404 4.656-1.211 1.177-.808 1.99-1.878 2.437-3.211.334-1.021.5-2.48.5-4.375v-14.5h-4.609v14.797c0 1.854-.214 3.075-.64 3.664-.428.588-1.157.883-2.188.883-1.02 0-1.781-.412-2.281-1.235-.334-.542-.526-1.469-.578-2.781l-4.36.5c.01 2.448.625 4.305 1.844 5.57 1.219 1.266 2.958 1.899 5.219 1.899zm15.093-.391l1.891-5.203h9.156l2 5.203h5.032l-9.172-22.906h-4.891l-8.922 22.906h4.906zm9.563-9.063h-6.25l3.094-8.5 3.156 8.5z" id="c"/></defs><g fill="none" fill-rule="evenodd"><path d="M498.07 338.31c-12.26-.7-17.69 10.38-31.53 10.42-13.84.04-17-11.22-32.13-11.91-15.09.69-18.27 11.94-32.12 11.91-13.85-.03-19.29-11.12-31.54-10.42-12.26-.7-17.69 10.38-31.54 10.42-13.85.04-17-11.22-32.12-11.91-15.08.69-18.27 11.94-32.12 11.91-13.85-.03-19.27-11.12-31.53-10.42-12.27-.7-17.69 10.38-31.54 10.42-13.85.04-17-11.22-32.12-11.91-15.09.69-18.28 11.94-32.12 11.91-13.84-.03-19.28-11.12-31.54-10.42m382 9.19c-12.26-.69-17.69 10.39-31.53 10.43-13.84.04-17-11.22-32.13-11.91-15.09.69-18.27 11.94-32.12 11.91-13.85-.03-19.34-11.12-31.59-10.43-12.26-.69-17.69 10.39-31.54 10.43-13.85.04-17-11.22-32.12-11.91-15.09.69-18.27 11.98-32.09 11.91-13.82-.07-19.27-11.12-31.53-10.43-12.27-.69-17.69 10.39-31.54 10.43-13.85.04-17-11.22-32.12-11.91-15.09.69-18.28 11.94-32.12 11.91-13.84-.03-19.28-11.12-31.54-10.43m382 7.73c-12.26-.69-17.69 10.39-31.53 10.42-13.84.03-17-11.21-32.13-11.9-15.09.69-18.27 11.94-32.12 11.9-13.85-.04-19.37-11.11-31.62-10.42-12.26-.69-17.69 10.39-31.54 10.42-13.85.03-17-11.21-32.12-11.9-15.08.69-18.27 11.94-32.12 11.9-13.85-.04-19.27-11.11-31.53-10.42-12.27-.69-17.69 10.39-31.54 10.42-13.85.03-17-11.21-32.12-11.9-15.09.69-18.28 11.94-32.12 11.9-13.84-.04-19.28-11.11-31.54-10.42m382 8.47c-12.26-.7-17.69 10.38-31.53 10.41-13.84.03-17-11.21-32.13-11.9-15.09.69-18.27 11.94-32.12 11.9-13.85-.04-19.34-11.11-31.59-10.41-12.26-.7-17.69 10.38-31.54 10.41-13.85.03-17-11.21-32.12-11.9-15.08.69-18.27 11.94-32.12 11.9-13.85-.04-19.27-11.11-31.53-10.41-12.27-.7-17.69 10.38-31.54 10.41-13.85.03-17-11.21-32.12-11.9-15.09.69-18.28 11.94-32.12 11.9-13.84-.04-19.28-11.11-31.54-10.41m382-32.85c-12.26-.7-17.69 10.38-31.53 10.42-13.84.04-17-11.21-32.13-11.91-15.09.7-18.27 11.94-32.12 11.91-13.85-.03-19.34-11.12-31.59-10.42-12.26-.7-17.69 10.38-31.54 10.42-13.85.04-17-11.21-32.12-11.91-15.08.7-18.27 11.94-32.12 11.91-13.85-.03-19.27-11.12-31.53-10.42-12.27-.7-17.69 10.38-31.54 10.42-13.85.04-17-11.21-32.12-11.91-15.09.7-18.28 11.94-32.12 11.91-13.84-.03-19.28-11.12-31.54-10.42" fill="#009EE0"/><path d="M524.29 457.75c-18.66 112.4-129 207.45-260.29 230.74C135 676.66 24.3 565.48 3.71 446.57A191.897 191.897 0 01.997 413.3V100.07C49.38 81.26 86.24 44.62 100.05 0H428c13.81 44.62 50.67 81.26 99.05 100.07v319.37a219.79 219.79 0 01-2.76 38.31z" fill="#000200"/><path d="M263.32 671.11c59.19-10.92 116.43-37.73 161.68-77.51 41.05-36.09 73.22-84.06 82.29-138.67a213 213 0 002.56-35.49V111.49c-41.57-19-76.78-51.7-94-94.26H112.18C95 59.79 59.8 92.51 18.227 111.49V413.3a177.316 177.316 0 002.453 30.33C40.54 558.28 147 659.27 263.32 671.11z" fill="#FFF"/><path d="M262.62 653.71c100.9-19.54 209.89-94.46 227.68-201.6a195.33 195.33 0 002.33-32.67V122.25c-37.66-19.53-69.44-49.7-87.92-87.8H123.38c-18.49 38.1-50.27 68.27-87.933 87.8V413.3c-.052 9.177.688 18.34 2.213 27.39 18.39 106.22 117.23 200.79 224.96 213.02z" fill="#009035"/><path fill="#000200" d="M132.45 131.77h18.38v-24.54h28.57v24.54h18.38v-24.54h28.57v24.54h18.38v-24.54h33.4v24.54h18.37v-24.54h28.58v24.54h18.37v-24.54h28.58v24.54h18.37v-24.54h28.58V217.9h-315.1V107.23h28.57z"/><path d="M492.38 431.62c.18-4 .25-8.05.25-12.18V189.83H35.45V413.3c-.019 6.12.295 12.235.94 18.32h455.99z" fill="#000200"/><path d="M485.48 431.62c.19-4.05.26-8.12.26-12.18V196.72H42.34V413.3c-.007 6.12.327 12.237 1 18.32h442.14z" fill="#FFEC00"/><path d="M63.73 324.72h27.33v35.83l45.25 25v-60.83h.25c27.37-24.16 73.42-40 125.6-40 52.18 0 98.22 15.87 125.59 40h.25v60.81l45.25-25v-35.81h27.34v-89.08H63.73v89.08z" fill="#000200"/><path fill="#000200" fill-rule="nonzero" d="M38.9 193.28h450.29v58.26H38.9z"/><path fill="#E30016" fill-rule="nonzero" d="M42.34 195.06h443.4v51.37H42.34z"/><path fill="#000200" fill-rule="nonzero" d="M151 431.84h226.84v52.58H151z"/><path fill="#FFEC00" fill-rule="nonzero" d="M154.44 435.28h219.94v45.69H154.44z"/><path fill="#000200" fill-rule="nonzero" d="M163.94 452.07h33.37v20.6h-33.37z"/><path fill="#E30016" fill-rule="nonzero" d="M166 454.13h29.23v16.47H166z"/><path fill="#000200" fill-rule="nonzero" d="M206.67 452.07h33.37v20.6h-33.37z"/><path fill="#E30016" fill-rule="nonzero" d="M208.73 454.13h29.23v16.47h-29.23z"/><path fill="#000200" fill-rule="nonzero" d="M249.4 452.07h33.37v20.6H249.4z"/><path fill="#E30016" fill-rule="nonzero" d="M251.46 454.13h29.23v16.47h-29.23z"/><path fill="#000200" fill-rule="nonzero" d="M292.13 452.07h33.37v20.6h-33.37z"/><path fill="#E30016" fill-rule="nonzero" d="M294.2 454.13h29.23v16.47H294.2z"/><path fill="#000200" fill-rule="nonzero" d="M334.86 452.07h33.37v20.6h-33.37z"/><path fill="#E30016" fill-rule="nonzero" d="M336.93 454.13h29.23v16.47h-29.23z"/><path fill="#000200" d="M42.77 445.42h442.54l-115.47-66.56H158.25z"/><path fill="#E30016" d="M55.65 442h416.78l-103.52-59.7H159.17z"/><g fill-rule="nonzero" transform="translate(.997)"><use fill="#000" xlink:href="#a"/><use fill="#FFF" xlink:href="#a"/></g><g fill-rule="nonzero" transform="translate(.997)"><use fill="#000" xlink:href="#b"/><use fill="#FFF" xlink:href="#b"/></g><g fill-rule="nonzero" transform="translate(.997)"><use fill="#000" xlink:href="#c"/><use fill="#FFF" xlink:href="#c"/></g><path d="M165.88 555.59l8.22 1.29-13.37-10.76-12.09-1.18-.57.17a33.5 33.5 0 01-5 1.1c9-.56 18.55 1.37 22.57 9l.24.38zM220 596.07l.91.19-1.62-1.26c.23.33.46.67.67 1l.04.07zm-27.54-34.87l1.1 10 9.21 7.64-.22-1.51-.29-.32c-3.84-4.12-8.09-9.63-8-15.57a15.76 15.76 0 011.2-5.5 52.8 52.8 0 01-3 5.26zm-14.18-11.63l.19 7.75 13.06 12-.8-7.19-.55-.6c-4.31-4.63-8.25-10.32-8.69-16.83v-1.21a43.68 43.68 0 01-3 5.79l-.21.29zm-15-13.41V545l13.37 10.76-.15-6.07-.18-.18c-4.4-4.47-9-10.34-9.61-16.82a15.37 15.37 0 01-.08-1.77 35.36 35.36 0 01-3.12 4.91l-.23.33zm-29.86-32.45l-.57 5.76 12 16.16.06-4.25-.46-.56c-4-4.8-8.16-11-8.27-17.51a16 16 0 01.25-3.14 29.8 29.8 0 01-2.47 3l-.54.54zM201 584.84c-12.56 6.51-24.53 5-36.45-2l-.12-.07-.11-.1a12.48 12.48 0 00-5-2.92l-6.09-2.16 6.44-.52c2.79-.22 3.9.44 6.36.78a4.27 4.27 0 002.25-.3l1.41-.46a41.19 41.19 0 01-7.11 0c-4.62-.4-12.13-2.07-14.37-6.77a12.56 12.56 0 00-4.76-2.73l-6.1-2.15 6.44-.52c2.89-.23 3.71.39 6.37-.65 10.48-3.6 29.62-5.3 35.8 6.39v.06l3.83.38-13-12-12.17-1.91a42.36 42.36 0 01-22.43 4.37c-4.63-.4-12.13-2.06-14.38-6.77a12.48 12.48 0 00-4.76-2.73l-6.1-2.16 6.45-.52c2.88-.23 3.7.4 6.37-.63a51 51 0 019.82-2.27 35.32 35.32 0 01-13-1.75c-4.29-1.44-10.42-4.7-11.32-9.65a10.92 10.92 0 00-3.55-3.61l-4.88-3.35 5.86.84c2.57.38 3.17 1.16 5.64.73 11.09-2.44 29.18-.89 30.58 13.4l9.76 1-14.31-15-10.37-2.2a34.61 34.61 0 01-16.43-1.52c-3.77-1.31-8.41-3.74-10.68-7.18a11.16 11.16 0 00-3.71-3.84L98.32 511l5.86.84c2.57.37 3.18 1.15 5.69.72h.19c10.5-.35 20 2.26 25.2 12.32l.25.48 7.15 1.53-12-16.22-8.89-1.83a34.46 34.46 0 01-16.15-1.57c-3.77-1.3-8.41-3.73-10.68-7.17a11.28 11.28 0 00-3.71-3.85l-4.88-3.34 5.86.84c2.57.37 3.18 1.15 5.69.71h.19c10.49-.35 20 2.26 25.19 12.33l.31.59 5.68 1.17-6.58-10.38c-5.94-1.28-12.52-3.62-16.4-8.55-2.68-3.39-3.47-7.12-3.88-11.31-.36-3.31-1.4-3.62-2.74-6.72L97.31 466l4.54 3.92a13.29 13.29 0 005.63 3.13c13.43 1.91 18.41 10.48 17.25 23.69l6.5 10.26.41-4.09c-3.32-3.81-6.65-8.69-6.86-13.9-.14-3.53 1.14-6.4 2.93-9.34 1.31-2.17.81-3 1.39-5.56l1.33-5.76 1.36 5.76a11 11 0 002.19 4.76c4.45 4.45 6.28 9 5.66 13.58.1-.17.21-.33.32-.5a7.83 7.83 0 001.14-2.32c.29-1.63.34-2.92.78-4.65l1.46-5.73 1.23 5.79a13.92 13.92 0 002.64 6.1c9.26 9.34 6.09 19.69-.55 29.39l-.11 7.24 14.88 15.59v-7.35c-4.62-4.24-9.49-9.87-10.44-16.3-.64-4.3.56-7.91 2.37-11.72a7.48 7.48 0 00.83-2.45c.09-1.65 0-2.94.19-4.7l.7-5.88 2 5.59a14.1 14.1 0 003.42 5.72c6 4.87 8.84 10.15 8.66 15.82l.51-1a7.65 7.65 0 001-2.4c.17-1.65.12-2.94.42-4.69l1-5.83 1.67 5.67a13.91 13.91 0 003.1 5.87c4.69 3.9 6.69 8.46 6.85 13.25a7.12 7.12 0 00.88-2.24c.16-1.64.11-2.93.41-4.68l1-5.83 1.68 5.67a13.83 13.83 0 003 5.79 16.19 16.19 0 016.86 7.65l.05-3.23 2.55 7.71c1.16 3.48 1.59 2.13 3.26 4a14.63 14.63 0 016.41 11.1c.64 6.33-1.94 12.65-5.36 17.84l-.08.12.52 3.62 1.93 1.59 10.28 8.05-.19-1.27-.34-.37c-3.7-4-7.8-9.29-7.7-15 .07-3.66 1.65-6 2.53-9.24 0-2.46.47-4.76.51-7.26l.13-8.12 2.55 7.71c1.11 3.33 1.52 2 3.13 3.83a14.12 14.12 0 016.18 10.72c.62 6.11-1.86 12.21-5.17 17.22v.07l.5 3.37 5.64 4.41 8.21 6.18-.19-1-.23-.24c-3.84-3.85-8.11-9-8.19-14.76-.06-3.67 1.44-6 2.21-9.33-.05-2.46.31-4.77.27-7.27l-.13-8.11 2.8 7.61c1.21 3.29 1.59 2 3.25 3.73a14.12 14.12 0 016.54 10.51c.82 6.07-1.46 12.26-4.6 17.38l-.12.19.53 2.95.82.61c12.07 7.85 25 16.27 34.4 25.87l5 3.75-.72 1-.73 1-.39-.29-5.26 3.2c-6-7.64-11.84-15.42-23.13-20.08a47.9 47.9 0 00-5.2-1.79 30.86 30.86 0 00-4.12-6.12c-12.61 6.6-24.63 5.07-36.6-1.91l-.12-.08-.17-.19a12.41 12.41 0 00-5-2.92l-6.09-2.08 6.44-.52c2.79-.22 3.9.44 6.36.78a4.17 4.17 0 002.25-.3c7-2.42 16.57-4.31 24.17-1.93l-3.32-3.24-4.19-.89-.19.1c-12.66 6.68-24.72 5.16-36.74-1.84l-.12-.07-.11-.1a12.44 12.44 0 00-5-2.92l-6.1-2.16 6.44-.52c2.79-.22 3.91.44 6.37.78.76.105 1.534 0 2.24-.3 7.55-2.59 17.94-4.58 25.78-1.35l-4.82-3.77-6.37-.91zm-20.66-10.06c8.32-.92 16.9.53 21.48 8l.24.4 2.53.34-12.43-10.3-6.69-.67h-.06a38.36 38.36 0 01-5.04 2.23h-.03z" fill="#000200"/><path d="M101 471c2 4.66 2.42 3.12 2.85 7.12.68 6.91 2.4 15.14 19.54 18.74 1.59-17.21-8-21.28-16.16-22.42A14.14 14.14 0 01101 471zM130.44 474.46c-.91 4 .11 3.21-1.55 6-2.89 4.73-5.73 10.83 4 21.82 9.39-10.11 5-17.57.06-22.44a12.13 12.13 0 01-2.51-5.38zM143.22 485.36c-1.25 4.92 0 4-2.1 7.37-3.72 5.79-7.42 13.28 4.3 27.21 7-10.12 9.17-19.44.74-27.86a14.82 14.82 0 01-2.94-6.72zM155.74 501c-.61 5 .55 3.95-1.14 7.57-2.94 6.22-5.65 14.12 7.77 26.43 10.28-13.72 3.83-22.35-2.85-27.72a15 15 0 01-3.78-6.28z" fill="#FFEC00"/><path d="M172.37 514.29c-.87 5 .35 4-1.52 7.5-3.26 6.07-6.36 13.83 6.42 26.8 9.29-15.17 3.78-23.53-1.45-27.84a14.82 14.82 0 01-3.45-6.46zM186.29 526.33c-.86 5 .35 4-1.52 7.5-1.57 6.07-5.65 13.83 6.42 26.79 10.72-16.54 4.83-24-1.45-27.83a14.82 14.82 0 01-3.45-6.46zM92 495.09c4 .59 3 1.26 6.12.71 5.9-.2 17.95 0 23.93 11.58-11.38 1.85-22.62-3-26-8a12 12 0 00-4.05-4.29z" fill="#FFEC00"/><path d="M198.8 544.29c-.07 4.78-.51 3.84-.52 7.71-1.57 6.07-7.08 11.07 5 24 8.49-12.85 5.48-23.29-.8-27.12-1.28-1.46-2.36-.61-3.68-4.59zM104 513.21c4 .58 3 1.25 6.12.7 5.9-.2 18 0 23.93 11.58-11.37 1.86-22.62-3-26-8a12 12 0 00-4.05-4.28zM112.57 530.39c4 .58 3 1.26 6.12.7 9.83-2.16 28-1.43 29 12.7-14.45 4.38-30.06-2.14-31-9.15a12 12 0 00-4.12-4.25zM123.61 550.82c4.46-.36 3.47.55 6.72-.72 9.27-3.19 28.22-5.43 34.11 5.74-14.34 7.57-32.62 4.79-35.39-1.82a13.46 13.46 0 00-5.44-3.2zM213.25 557c-.07 4.6-.49 3.7-.5 7.43-1.52 5.84-6.82 10.65 4.8 23.15 8.18-12.38 5.28-22.43-.77-26.12-1.22-1.41-2.26-.59-3.53-4.46zM228.26 569.74c.08 4.6-.37 3.71-.26 7.43-1.32 5.89-6.46 10.88 5.57 23 7.76-12.64 4.53-22.59-1.64-26.08-1.27-1.42-2.28-.57-3.67-4.35zM144 566.32c4.46-.36 3.46.55 6.71-.72 9.28-3.19 28.22-5.43 34.12 5.74-14.34 7.57-32.63 4.79-35.4-1.82a13.36 13.36 0 00-5.43-3.2zM159.84 578.46c4.46-.36 5.71 1.66 9 .4 9.27-3.19 25.23-6.18 31.87 4.61-14.33 7.57-26.52 3.36-35.4-1.81a13.18 13.18 0 00-5.47-3.2zM178 591.72c4.46-.36 5.71 1.66 9 .4 9.28-3.19 25.23-6.18 31.88 4.61-14.34 7.57-26.53 3.36-35.4-1.81a13.23 13.23 0 00-5.48-3.2zM194.46 604.8c4.47-.35 5.71 1.67 9 .41 9.28-3.19 25.23-6.18 31.88 4.61-14.34 7.58-26.53 3.36-35.4-1.81a13.34 13.34 0 00-5.48-3.21z" fill="#FFEC00"/><path d="M238.75 639.57c8-5.83 15.84-14.17 24.05-17.51l8.14-7.27-10.94 1.07c-9 4.52-19.35 9.34-27.21 17.95-.95 5.44 1.81 5.45 5.96 5.76z" fill="#000200"/><path d="M238.75 639.57c8-5.83 15.84-14.17 24.05-17.51l8.14-7.27-10.94 1.07c-9 4.52-19.35 9.34-27.21 17.95-.95 5.44 1.81 5.45 5.96 5.76z" stroke="#000200" stroke-width=".75"/><path d="M430.14 493a8.3 8.3 0 013.25 14.42c-1.18 1-6.57-1.77-8.2-1.56-3.21.4-2.28 2.33-4-.18a12.26 12.26 0 01-3.61 1.05c-6 .75-11.5-3.15-12.19-8.72a9.38 9.38 0 01.46-4.29c-3.28-.77.33 6.79-.11 3.25s-.53-10.35-2.13-18.5a8.28 8.28 0 0111.52 3.4 9.34 9.34 0 0115 11.13h.01z" fill="#FFF"/><path d="M433.41 496.38a7.11 7.11 0 00-3.57-2.19l-1.71-.44 1-1.43a8.35 8.35 0 001.24-2.71 8.45 8.45 0 00.18-3 8.14 8.14 0 00-12.06-6.07 8.3 8.3 0 00-2.39 2.06l-1.1 1.51-.86-1.68a7.08 7.08 0 00-7.18-3.79 7.51 7.51 0 00-1.38.31l-.53.2c.79 4.47 1.33 8.98 1.62 13.51l.84.2-.44 1.27a7.15 7.15 0 00-.23.79c.06.72.12 1.37.19 1.91a2.61 2.61 0 01-.24 1.74 8.57 8.57 0 003.47 5.19 10.29 10.29 0 007.25 1.77c.56-.07 1.115-.18 1.66-.33.541-.16 1.07-.36 1.58-.6l.94-.45.58.87c.31.46-.35.91 0 .7a5.76 5.76 0 012.86-1.06c1.375.052 2.73.35 4 .88a15.44 15.44 0 003.57 1 7.09 7.09 0 002.5-6.32 7.07 7.07 0 00-1.79-3.84zm-1.47-4a9.5 9.5 0 015.59 7.52 9.46 9.46 0 01-3.37 8.48c-1.19 1-3.6.21-5.86-.52a12.66 12.66 0 00-3-.77 3.7 3.7 0 00-1.8.65c-1.24.85-1.57 1.08-2.75-.53-.32.12-.653.23-1 .33a13.19 13.19 0 01-2 .42 12.68 12.68 0 01-9-2.21 11 11 0 01-4.59-7.56V498a4.9 4.9 0 01-.49-1 5.47 5.47 0 01-.35-2.93 2.21 2.21 0 01.83-1.38 116.37 116.37 0 00-1.75-14.05l-.16-.84.76-.44a9.54 9.54 0 011.72-.78 9.65 9.65 0 011.86-.42 9.52 9.52 0 015.6 1 9.7 9.7 0 013.12 2.65 10.45 10.45 0 012-1.44 10.44 10.44 0 013.89-1.28 10.54 10.54 0 0111.81 9.25 10.76 10.76 0 01-.23 3.85 10.41 10.41 0 01-.83 2.17v.02z" fill="#000200"/><path d="M403.58 478.21c2.76 2.35 4.24 6.75 3.47 14.84 4.38-4.39 9.9-4.93 15.74-4.4.19 4.69.34 9.37-3.47 13.05 6.57-1.11 12.81.87 15.09 6.24-5.14-.9-10 5.58-19.45 2-6.42-2.39-8.67-.61-14.48 2.22l-2.31-3.79c5-3.86 1-7.86-.31-10.41-5.05-9.6 5.66-12.83 5.72-19.75z" fill="#009035"/><path d="M405.46 483.77a9.93 9.93 0 00-1.16-2.85 19 19 0 01-3.19 5.13c-2.4 3.07-4.87 6.24-2.18 11.38.19.35.46.78.76 1.25 1.72 2.72 4 6.3.06 10l1.19 1.95.73-.36c4.91-2.45 7.47-3.73 13.71-1.4 5.38 2 9.21.51 12.47-.77a19.35 19.35 0 014.48-1.36 9.31 9.31 0 00-4-3.09 16.24 16.24 0 00-8.78-.72l-1-2.07a9.89 9.89 0 002.88-5.5 26.11 26.11 0 00.26-5.56 23.93 23.93 0 00-7 .41 13.69 13.69 0 00-6.73 3.72l-2.07-1a26.8 26.8 0 00-.43-9.16zm-1.1-6.48a10.94 10.94 0 013.45 5.89 25 25 0 01.63 7.12 16.29 16.29 0 015.66-2.48 27.68 27.68 0 018.8-.38l1.06.1v1.06a32.93 32.93 0 01-.25 7.17 12.91 12.91 0 01-1.66 4.43 17.26 17.26 0 017.13 1.18 11.34 11.34 0 016.31 6.08l.87 2.06-2.19-.39c-1.66-.29-3.46.42-5.48 1.21-3.65 1.42-7.94 3.1-14.19.77-5.25-2-7.49-.84-11.79 1.31l-1.75.87-1 .48-.57-.94-2.3-3.78-.57-.93.86-.67c3.32-2.56 1.54-5.37.21-7.46-.31-.5-.6-1-.85-1.43-3.42-6.52-.46-10.32 2.41-14 1.59-2 3.15-4 3.17-6.36v-2.59l2.04 1.68z" fill="#000200"/><path d="M411.54 511a10.08 10.08 0 014.2 17.45c-1.42 1.21-8-2-10-1.75-3.88.53-2.72 2.86-4.82-.15a14.28 14.28 0 01-4.36 1.33c-7.32 1-14-3.62-15-10.36a11.52 11.52 0 01.48-5.21c-4-.89.53 8.22-.07 3.94-.6-4.28-.83-12.55-2.91-22.43a10 10 0 013.77-1.32 10.07 10.07 0 0110.28 5.24c3.662-5.09 10.756-6.247 15.845-2.585 5.09 3.662 6.247 10.756 2.585 15.845z" fill="#FFF"/><path d="M415.76 514.83a8.85 8.85 0 00-4.5-2.67l-1.72-.41 1-1.45a10.16 10.16 0 001.49-3.4 10 10 0 00.17-3.7c-.78-5.531-5.886-9.39-11.42-8.63a9.92 9.92 0 00-3.71 1.28 10.29 10.29 0 00-2.95 2.62L393 500l-.89-1.67a8.94 8.94 0 00-3.8-3.73 8.81 8.81 0 00-5.24-.88 8.91 8.91 0 00-1.73.41c-.28.11-.57.22-.84.35a149.81 149.81 0 012.25 16.74l.94.21-.42 1.27c-.114.328-.21.662-.29 1 .08.89.17 1.67.27 2.36a2.76 2.76 0 01-.29 2 10.72 10.72 0 004.45 6.51 12.68 12.68 0 009 2.07 13.43 13.43 0 002.06-.45 12.52 12.52 0 001.93-.77l.94-.45.59.85c.54.77.14 1 .32.92a6.9 6.9 0 013.35-1.29c1.09-.15 2.89.4 4.76 1 2.08.64 4.29 1.32 4.6 1.06a9 9 0 002.53-3.6 8.91 8.91 0 00-1.72-9.08h-.01zm-2.41-4.54a11.39 11.39 0 014.2 2.91 11.28 11.28 0 012.2 11.57 11.48 11.48 0 01-3.22 4.58c-1.33 1.13-4.19.25-6.89-.58a14.44 14.44 0 00-3.72-.89 4.5 4.5 0 00-2.28.87c-1.35 1-1.7 1.19-3.12-.71-.44.18-.9.35-1.36.49a15.56 15.56 0 01-13.16-1.94 13.06 13.06 0 01-5.6-8.93v-.21a5.64 5.64 0 01-.62-1.17 6.52 6.52 0 01-.47-3.41 2.28 2.28 0 011-1.58 143.41 143.41 0 00-2.39-17.24l-.18-.84.74-.45a11.25 11.25 0 012-.95 10.52 10.52 0 012.18-.53 11.3 11.3 0 0110.61 4.43 12.77 12.77 0 012.53-2 12.64 12.64 0 014.6-1.59c6.861-.95 13.194 3.84 14.15 10.7a12.52 12.52 0 01-.2 4.58c-.216 1-.552 1.97-1 2.89z" fill="#000200"/><path d="M379 493.48c3.39 2.79 5.27 8.11 4.48 17.95 5.24-5.41 11.93-6.16 19-5.62.3 5.69.57 11.37-4 15.9 7.95-1.46 15.56.84 18.42 7.32-6.25-1-12 6.94-23.58 2.81-7.83-2.8-10.53-.59-17.54 2.94l-2.78-4.55c6-4.79 1.1-9.57-.56-12.64-6.31-11.59 6.64-15.71 6.56-24.11z" fill="#009035"/><path d="M381.67 500.13a12.38 12.38 0 00-1.8-4c-.69 2.48-2.29 4.58-3.91 6.72-2.9 3.83-5.9 7.8-2.46 14.13.23.42.58 1 .95 1.53 2.11 3.22 4.89 7.48.13 11.92l1.72 2.74 1.09-.57c5.86-3 8.92-4.61 16.42-1.94 6.67 2.38 11.34.47 15.31-1.14a21.43 21.43 0 015.79-1.78 11.52 11.52 0 00-5.32-4.12 19.91 19.91 0 00-10.81-.74l-1.08-2a12.32 12.32 0 003.48-6.87 32.85 32.85 0 00.2-7 29.11 29.11 0 00-8.77.62 16.82 16.82 0 00-8.24 4.7l-2.07-.94a33.22 33.22 0 00-.63-11.26zm-1.87-7.59a13.15 13.15 0 014.21 7 31.26 31.26 0 01.87 9.09 19.37 19.37 0 017.16-3.38 33.51 33.51 0 0110.59-.61l1.06.08.06 1.07a39 39 0 01-.18 8.65 15.2 15.2 0 01-2.17 5.74 20.91 20.91 0 019.08 1.26 13.54 13.54 0 017.62 7.13l.9 2-2.2-.35c-2.09-.33-4.29.57-6.76 1.58-4.37 1.77-9.5 3.87-17 1.18-6.52-2.32-9.25-.9-14.5 1.81l-2.09 1.07-1 .5-.59-.93-2.86-4.56-.58-.92.85-.67c4.16-3.32 1.88-6.81.18-9.41-.38-.59-.74-1.13-1.05-1.7-4.19-7.71-.71-12.31 2.66-16.76 1.92-2.53 3.81-5 3.79-7.93v-2.58l1.95 1.64z" fill="#000200"/><path d="M388.09 531.19a11.19 11.19 0 014.07 19.52c-1.61 1.29-8.81-2.52-11-2.28-4.33.47-3.12 3.09-5.35-.32a16 16 0 01-4.89 1.32c-8.16.89-15.44-4.49-16.25-12a12.73 12.73 0 01.71-5.77c-4.4-1.11.31 9.16-.21 4.38-.5-4.61-.5-14-2.48-25a11.35 11.35 0 014.23-1.34 11.2 11.2 0 0111.24 6.17c4.245-5.47 12.113-6.482 17.604-2.263 5.49 4.22 6.54 12.082 2.346 17.593l-.02-.01z" fill="#FFF"/><path d="M392.75 535.53a10 10 0 00-5-3.16l-1.7-.46 1-1.43a11.31 11.31 0 002.11-7.92 11.35 11.35 0 00-12.53-10.07 11.35 11.35 0 00-4.2 1.31 11.21 11.21 0 00-3.4 2.83l-1.19 1.47-.84-1.69a10 10 0 00-10-5.5 9.8 9.8 0 00-1.95.41c-.37.12-.72.25-1.07.4a164.72 164.72 0 012 18.85l1 .25-.46 1.26a11.33 11.33 0 00-.36 1.17c.07 1 .13 1.91.21 2.66a2.86 2.86 0 01-.38 2.17 12 12 0 004.77 7.54 14.63 14.63 0 0012.35 2.18 15.94 15.94 0 002.2-.79l.95-.43.56.87c.65 1 .39 1.15.51 1.08a7.33 7.33 0 013.7-1.3c1.2-.13 3.15.54 5.2 1.24 2.32.79 4.79 1.63 5.2 1.31a10 10 0 003-4 10 10 0 00-1.62-10.27l-.06.02zm-2.81-5a12.49 12.49 0 014.65 3.4 12.42 12.42 0 012 12.77 12.55 12.55 0 01-3.69 4.92c-1.45 1.17-4.57.1-7.49-.89a16.53 16.53 0 00-4.18-1.13 5.22 5.22 0 00-2.61.91c-1.47 1-1.83 1.21-3.31-.93-.53.2-1.07.37-1.62.53a17 17 0 01-2.69.51 16.72 16.72 0 01-11.73-3.09 14.33 14.33 0 01-5.85-10v-.26a6.09 6.09 0 01-.65-1.33 7 7 0 01-.4-3.71 2.39 2.39 0 011.18-1.68 161.39 161.39 0 00-2.07-19.32l-.16-.85.76-.43a12.35 12.35 0 012.27-1 12.68 12.68 0 012.42-.51 12.37 12.37 0 0111.58 5.35 13.57 13.57 0 013-2.17 13.76 13.76 0 015.11-1.59 13.79 13.79 0 0115.2 12.23 13.82 13.82 0 01-.39 5 13.45 13.45 0 01-1.33 3.29v-.02z" fill="#000200"/><path d="M352.59 510.67c3.67 3.22 5.59 9.19 4.37 20.08 6-5.82 13.45-6.44 21.31-5.6.16 6.33.26 12.64-4.95 17.53 8.88-1.36 17.25 1.44 20.21 8.73-6.91-1.32-13.53 7.31-26.27 2.33-8.6-3.36-11.67-1-19.58 2.68-1-1.72-2-3.437-3-5.15 6.82-5.11 1.55-10.59-.2-14-6.63-13.14 7.88-17.27 8.11-26.6z" fill="#009035"/><path d="M355.43 518.11a13.81 13.81 0 00-2-4.74c-.81 2.82-2.7 5.16-4.62 7.54-3.38 4.2-6.88 8.53-3.23 15.76.26.52.63 1.11 1 1.74 2.22 3.62 5.15 8.42-.32 13.14l1.93 3.3 1.35-.64c6.58-3.15 10-4.8 18.19-1.6 7.37 2.88 12.65.92 17.13-.75a23 23 0 016.67-1.79 12.85 12.85 0 00-5.95-5 22.25 22.25 0 00-12.05-1.19l-1-2.08a13.72 13.72 0 004.13-7.58 37.24 37.24 0 00.47-8 33 33 0 00-9.92.39 18.78 18.78 0 00-9.37 5l-2.05-1a37 37 0 00-.32-12.5h-.04zm-2-8.35a14.59 14.59 0 014.4 7.79c.724 3.406.94 6.9.64 10.37a21 21 0 018.23-3.65 37.06 37.06 0 0111.74-.33l1.06.12v1.06a42.87 42.87 0 01-.48 9.57 16.52 16.52 0 01-2.74 6.47 23.17 23.17 0 0110.25 1.7 14.82 14.82 0 018.15 8.1l.84 2.06-2.19-.41c-2.35-.45-4.84.47-7.63 1.51-4.89 1.82-10.63 4-18.86.75-7.21-2.82-10.32-1.33-16.26 1.52l-2.37 1.13-1 .46-.56-1-3-5.15-.54-.94.86-.64c4.83-3.62 2.39-7.63.55-10.62-.41-.68-.8-1.31-1.1-1.92-4.35-8.62-.37-13.57 3.5-18.36 2.23-2.77 4.42-5.49 4.5-8.75l.06-2.59 1.95 1.75z" fill="#000200"/><path d="M364.69 555.54a11.65 11.65 0 012.38 20.62c-1.79 1.2-8.91-3.44-11.22-3.41-4.53.08-3.53 2.91-5.52-.83a17 17 0 01-5.19.92c-8.55.15-15.59-6.12-15.73-14a13.4 13.4 0 011.28-5.91c-4.45-1.57-.54 9.51-.62 4.51-.09-4.82.79-14.53-.22-26.16a11.67 11.67 0 0115.59 6.47c4.957-5.098 13.075-5.315 18.297-.489 5.223 4.826 5.645 12.936.953 18.279z" fill="#FFF"/><path d="M369.16 560.44a10.45 10.45 0 00-4.9-3.76l-1.64-.62 1.16-1.32A12 12 0 00366 551a11.85 11.85 0 00.72-4.3c-.11-6.569-5.521-11.806-12.09-11.7a11.85 11.85 0 00-4.49 1 12.1 12.1 0 00-3.8 2.63l-1.34 1.31-.68-1.76a10.46 10.46 0 00-3.92-4.9 10.34 10.34 0 00-6-1.78c-.7.018-1.396.102-2.08.25a11.41 11.41 0 00-1.18.33c.465 6.59.549 13.2.25 19.8l1 .35-.58 1.21a12.57 12.57 0 00-.49 1.2v2.78a2.94 2.94 0 01-.61 2.2 12.51 12.51 0 004.26 8.32 14.84 14.84 0 0010.19 3.68 15.51 15.51 0 002.45-.23 14.69 14.69 0 002.37-.62l1-.34.49.92c.59 1.13.4 1.23.49 1.19a7.57 7.57 0 013.93-1c1.25 0 3.21.85 5.27 1.77 2.33 1 4.83 2.15 5.3 1.83a10.43 10.43 0 002.75-14.71l-.05.01zm-2.57-5.37a13 13 0 014.54 4 12.92 12.92 0 01.88 13.39 13 13 0 01-4.27 4.75c-1.59 1.05-4.71-.34-7.64-1.65a16.31 16.31 0 00-4.24-1.56 5.54 5.54 0 00-2.82.7c-1.59.85-2 1.06-3.31-1.29a17.7 17.7 0 01-1.75.4 18.35 18.35 0 01-2.83.27 17.35 17.35 0 01-11.84-4.3 14.84 14.84 0 01-5.11-10.89v-.27a6.52 6.52 0 01-.55-1.45 7.35 7.35 0 01-.07-3.86 2.49 2.49 0 011.39-1.61 166.65 166.65 0 00-.33-20.27l-.08-.87.8-.35a12.65 12.65 0 012.44-.79 12.28 12.28 0 012.55-.3 12.84 12.84 0 0111.49 6.67 14.34 14.34 0 018.75-3.17c7.901-.122 14.409 6.179 14.54 14.08a14.11 14.11 0 01-2.56 8.4l.02-.03z" fill="#000200"/><path d="M329.8 530.9c3.5 3.69 4.93 10.06 2.64 21.24 6.77-5.47 14.56-5.41 22.63-3.79-.44 6.57-.92 13.13-6.78 17.71 9.34-.57 17.75 3.13 20.14 11-7.05-2-14.74 6.31-27.48-.06-8.6-4.3-12-2.15-20.56.93l-2.64-5.63c7.55-4.65 2.6-10.84 1.11-14.59-5.62-14.24 9.82-17.15 10.94-26.81z" fill="#009035"/><path d="M332.09 538.89a14.43 14.43 0 00-1.72-5.23c-1.1 2.89-3.3 5.16-5.54 7.48-3.91 4-7.95 8.21-4.83 16.08.23.59.54 1.23.87 1.91 2 4 4.54 9.19-1.58 13.56l1.73 3.68 1.5-.56c7.1-2.64 10.81-4 19 .07 7.39 3.69 13.06 2.14 17.88.83a23.58 23.58 0 017.16-1.21 13.27 13.27 0 00-5.76-5.84 23.2 23.2 0 00-12.42-2.39l-.81-2.16a14.35 14.35 0 005-7.5 38.19 38.19 0 001.24-8.27 34.6 34.6 0 00-10.38-.55 19.61 19.61 0 00-10.21 4.3l-1.95-1.19c1.09-5.44 1.31-9.69.82-13.01zm-1.41-8.82a15 15 0 013.81 8.46 36.39 36.39 0 01-.33 10.91 22.1 22.1 0 019-3.06 38.64 38.64 0 0112.19.77l1.05.21-.07 1.07a45.54 45.54 0 01-1.41 9.87 17 17 0 01-3.51 6.51 24.2 24.2 0 0110.56 2.72 15.38 15.38 0 017.65 9.15l.65 2.12-2.14-.6c-2.41-.7-5.08 0-8.08.85-5.23 1.42-11.38 3.1-19.6-1-7.22-3.61-10.59-2.36-17 0-.8.3-1.64.62-2.57.95l-1 .37-.46-1-2.65-5.63-.46-1 .92-.57c5.39-3.32 3.22-7.73 1.59-11-.37-.75-.72-1.46-1-2.08-3.68-9.32.91-14.07 5.36-18.68 2.59-2.66 5.11-5.28 5.51-8.67l.29-2.58 1.7 1.91z" fill="#000200"/><path d="M337.32 576.28a12.15 12.15 0 012.49 21.51c-1.87 1.25-9.3-3.59-11.71-3.55-4.73.08-3.68 3-5.76-.88a17.17 17.17 0 01-5.41 1c-8.92.16-16.27-6.38-16.41-14.6a13.84 13.84 0 011.33-6.17c-4.65-1.64-.56 9.93-.66 4.71-.08-5 .84-15.16-.22-27.3a12.31 12.31 0 014.71-1 12.18 12.18 0 0111.56 7.78c5.176-5.31 13.64-5.529 19.084-.494 5.444 5.034 5.886 13.49.996 19.064v-.07z" fill="#FFF"/><path d="M342 581.36a11 11 0 00-5.13-4l-1.65-.61 1.16-1.32a12.63 12.63 0 002.34-3.94c.525-1.44.78-2.967.75-4.5-.131-6.877-5.802-12.351-12.68-12.24a12.63 12.63 0 00-4.71 1 12.57 12.57 0 00-4 2.76l-1.31 1.35-.69-1.76a10.93 10.93 0 00-12.57-6.74c-.43.097-.853.218-1.27.36.483 6.9.57 13.82.26 20.73l1 .36-.57 1.21c-.19.41-.36.84-.52 1.27v2.91a3 3 0 01-.64 2.27 13.14 13.14 0 004.47 8.74 15.59 15.59 0 0010.66 3.86 16.69 16.69 0 002.55-.25 15.79 15.79 0 002.48-.64l1-.34.48.91c.66 1.23.53 1.29.59 1.26a8 8 0 014.08-1c1.29 0 3.33.88 5.47 1.84 2.45 1.1 5.07 2.26 5.59 1.91a11 11 0 002.86-15.4zm-2.8-5.56a13.47 13.47 0 014.8 4.2 13.25 13.25 0 012.44 7.48 13.26 13.26 0 01-6 11.36c-1.63 1.09-4.87-.35-7.91-1.71a17.4 17.4 0 00-4.45-1.64 5.74 5.74 0 00-3 .74c-1.62.87-2 1.08-3.4-1.37a17.26 17.26 0 01-1.86.43c-.974.176-1.96.27-2.95.28a18 18 0 01-12.3-4.46 15.5 15.5 0 01-5.31-11.33v-.27a6.67 6.67 0 01-.58-1.52 7.47 7.47 0 01-.07-4 2.48 2.48 0 011.44-1.66 174.05 174.05 0 00-.34-21.2l-.08-.86.8-.35A13.9 13.9 0 01303 549a13.52 13.52 0 0110.34 2 13.56 13.56 0 014.29 4.71 14.79 14.79 0 013.5-2.12 14.82 14.82 0 015.64-1.2c8.22-.15 15.007 6.39 15.16 14.61a14.68 14.68 0 01-2.7 8.78l-.03.02z" fill="#000200"/><path d="M300.92 550.57c3.66 3.84 5.14 10.49 2.75 22.16 7.06-5.71 15.19-5.65 23.62-4-.46 6.86-1 13.71-7.08 18.48 9.74-.6 18.52 3.26 21 11.44-7.35-2.1-15.37 6.58-28.67-.07-9-4.49-12.53-2.24-21.45 1l-2.76-5.87c7.88-4.86 2.72-11.31 1.17-15.22-5.86-14.81 10.26-17.84 11.42-27.92z" fill="#009035"/><path d="M303.36 558.89a15 15 0 00-1.86-5.57c-1.13 3.06-3.45 5.45-5.8 7.89-4.1 4.23-8.33 8.59-5.06 16.84.22.57.56 1.25.92 2 2 4.12 4.72 9.57-1.68 14.11l1.85 3.92 1.61-.59c7.39-2.75 11.26-4.19 19.76.06 7.72 3.86 13.65 2.25 18.69.87a24.55 24.55 0 017.54-1.26 14 14 0 00-6.07-6.2 24.24 24.24 0 00-13-2.49l-.82-2.17a15 15 0 005.25-7.84 40.65 40.65 0 001.3-8.69 36.06 36.06 0 00-10.89-.58 20.48 20.48 0 00-10.69 4.49l-1.95-1.18c1.19-5.7 1.41-10.14.9-13.61zm-1.56-9.16a15.61 15.61 0 014 8.81 38 38 0 01-.4 11.46 22.86 22.86 0 019.42-3.25 40.15 40.15 0 0112.71.8l1 .22-.07 1.06a47.38 47.38 0 01-1.46 10.31 17.77 17.77 0 01-3.73 6.86 25.08 25.08 0 0111.1 2.83 16 16 0 018 9.51l.65 2.13-2.14-.61c-2.54-.73-5.33 0-8.47.89-5.44 1.49-11.85 3.23-20.41-1-7.55-3.77-11.08-2.46-17.82 0l-2.68 1-1 .38-.47-1-2.77-5.87-.46-1 .92-.57c5.67-3.49 3.39-8.12 1.69-11.58-.38-.75-.73-1.46-1-2.16-3.84-9.7.94-14.65 5.58-19.43 2.7-2.79 5.34-5.52 5.75-9.09l.3-2.58 1.76 1.88z" fill="#000200"/><path d="M311.62 598.48a12.72 12.72 0 012.22 22.57c-2 1.27-9.67-3.93-12.2-3.93-4.95 0-3.91 3.11-6-1a18.1 18.1 0 01-5.7.91c-9.34 0-16.92-7-16.92-15.59a14.5 14.5 0 011.52-6.44c-4.85-1.8-.78 10.39-.78 4.92 0-5.27 1.15-15.86.26-28.58a12.582 12.582 0 014.95-1 12.72 12.72 0 0112 8.35c5.513-5.491 14.4-5.58 20.021-.2s5.923 14.262.679 20.01l-.05-.02z" fill="#FFF"/><path d="M316.5 603.85a11.52 11.52 0 00-5.32-4.24l-1.64-.64 1.18-1.31c4.708-5.178 4.519-13.141-.43-18.09-5.114-5.105-13.396-5.105-18.51 0l-1.35 1.33-.65-1.78a11.58 11.58 0 00-4.23-5.49 11.45 11.45 0 00-6.59-2.06c-.769 0-1.535.073-2.29.22-.47.1-.934.226-1.39.38a188 188 0 01-.1 21.8l1 .38-.6 1.21c-.211.43-.398.87-.56 1.32C275 598 275 599 275 599.9c.1.848-.157 1.7-.71 2.35a13.8 13.8 0 004.53 9.3 16.43 16.43 0 0011.14 4.24 17 17 0 005.32-.84l1-.33.47.93c.68 1.35.66 1.36.67 1.35a8.38 8.38 0 014.26-1c1.33 0 3.45 1 5.67 2 2.56 1.2 5.29 2.48 5.87 2.11a11.69 11.69 0 003.91-4.18 11.58 11.58 0 00-.59-12l-.04.02zm-2.95-5.85a14 14 0 01.95 24.05c-1.71 1.09-5.07-.48-8.21-2-2-.92-3.84-1.79-4.65-1.79a6.1 6.1 0 00-3.15.72c-1.68.86-2.08 1.07-3.48-1.51-.64.17-1.31.32-2 .43a19.91 19.91 0 01-3.09.24 18.79 18.79 0 01-12.78-4.89 16.15 16.15 0 01-5.35-11.91v-.33a7.26 7.26 0 01-.57-1.59 7.82 7.82 0 010-4.16 2.55 2.55 0 011.54-1.68 182.84 182.84 0 000-22.26l-.06-.86.8-.34a13.82 13.82 0 012.65-.82c.912-.183 1.84-.277 2.77-.28a13.9 13.9 0 018 2.51 14.06 14.06 0 014.42 5c6.22-4.879 15.112-4.31 20.66 1.32a15.55 15.55 0 011.55 20.15z" fill="#000200"/><path d="M274 570.9c3.76 4.09 5.2 11.08 2.48 23.25 7.5-5.85 16-5.63 24.81-3.72-.6 7.18-1.25 14.34-7.75 19.23 10.22-.45 19.34 3.75 21.8 12.36-7.66-2.34-16.21 6.61-30-.59-9.32-4.86-13.09-2.57-22.48.63l-2.79-6.2c8.34-4.94 3.05-11.79 1.5-15.92-5.93-15.62 10.99-18.51 12.43-29.04z" fill="#009035"/><path d="M276.43 579.65a15.54 15.54 0 00-1.92-6c-1.22 3.22-3.71 5.72-6.25 8.25-4.38 4.37-8.9 8.88-5.62 17.6.23.62.58 1.34.94 2.11 2.05 4.34 4.76 10.08-2 14.7l1.9 4.23 1.75-.61c7.77-2.74 11.84-4.17 20.64.42 8 4.19 14.28 2.61 19.6 1.25 2.84-.72 5.43-1.38 8-1.17a14.58 14.58 0 00-6.31-6.71 25.45 25.45 0 00-13.58-2.86l-.78-2.18a15.77 15.77 0 005.66-8.15 42.47 42.47 0 001.54-9.13 38.15 38.15 0 00-11.46-.81 21.52 21.52 0 00-11.3 4.52l-1.93-1.21c1.28-5.9 1.59-10.61 1.12-14.25zm-1.57-9.58a16.34 16.34 0 014 9.27 40.17 40.17 0 01-.61 12.13 24.07 24.07 0 0110-3.3 42.16 42.16 0 0113.27 1.08l1 .22-.09 1.06a48.06 48.06 0 01-1.72 10.74 18.7 18.7 0 01-4.09 7.19 26.33 26.33 0 0111.67 3.16 16.72 16.72 0 018.15 10.07l.61 2.14-2.13-.65c-2.64-.8-5.59-.06-8.91.79-5.72 1.45-12.45 3.16-21.32-1.47-7.87-4.1-11.59-2.78-18.72-.27-.87.31-1.79.64-2.81 1l-1 .36-.46-1-2.78-6.2-.45-1 .93-.55c6.05-3.58 3.73-8.5 2-12.17-.39-.81-.75-1.57-1-2.28-3.83-10.19 1.25-15.26 6.18-20.18 2.89-2.88 5.71-5.7 6.21-9.45l.34-2.57 1.73 1.88z" fill="#000200"/><path d="M388 343.37c-1-.56-2.06-1.15-3.07-1.74-4.34-2.53-8.52-5-14.08-4.65h-.2c-5.55-.31-9.73 2.12-14.08 4.65-4.85 2.82-9.89 5.75-17.36 5.77-7.47.02-11.92-2.91-16.55-5.95-4.21-2.76-8.56-5.61-15.57-5.95-7 .34-11.35 3.19-15.55 5.95-4.63 3-9.11 6-16.57 5.95-7.46-.05-12.51-2.95-17.35-5.77-4.36-2.53-8.53-5-14.08-4.65h-.2c-5.55-.31-9.74 2.12-14.09 4.65-4.84 2.82-9.89 5.75-17.35 5.77-7.46.02-11.94-2.91-16.56-5.95-4.21-2.76-8.56-5.61-15.56-5.95-7 .34-11.36 3.19-15.56 5.95-4.63 3-9.11 6-16.56 5.95a26.87 26.87 0 01-11.35-2.54v-4.05a24.35 24.35 0 0011.35 3c6.35 0 10.39-2.63 14.56-5.37 4.63-3 9.41-6.17 17.48-6.54h.15c8.08.37 12.86 3.51 17.48 6.54 4.17 2.74 8.21 5.39 14.57 5.37 6.36-.02 11.09-2.71 15.53-5.29 4.81-2.79 9.42-5.48 16-5.13 6.58-.35 11.2 2.34 16 5.13 4.44 2.58 9.07 5.27 15.53 5.29 6.46.02 10.4-2.63 14.57-5.37 4.62-3 9.41-6.17 17.47-6.54h.16c8.07.37 12.85 3.51 17.48 6.54 4.17 2.74 8.21 5.39 14.56 5.37 6.35-.02 11.1-2.71 15.54-5.29 4.8-2.79 9.42-5.48 16-5.13 6.59-.35 11.2 2.34 16 5.13l1.24.72.02 4.13zm0 9.2c-1-.57-2.06-1.16-3.07-1.74-4.34-2.53-8.52-5-14.08-4.65h-.2c-5.55-.31-9.73 2.12-14.08 4.65-4.85 2.82-9.89 5.75-17.36 5.77-7.47.02-11.92-2.91-16.55-6-4.21-2.76-8.56-5.61-15.57-5.95-7 .34-11.35 3.19-15.55 5.95-4.63 3-9.11 6-16.57 6-7.46 0-12.51-3-17.35-5.77-4.36-2.53-8.53-5-14.08-4.65h-.2c-5.55-.31-9.74 2.12-14.09 4.65-4.84 2.82-9.89 5.75-17.35 5.77-7.46.02-11.94-2.91-16.56-6-4.21-2.76-8.56-5.61-15.56-5.95-7 .34-11.36 3.19-15.56 5.95-4.63 3-9.11 6-16.56 6a26.872 26.872 0 01-11.35-2.54V350a24.47 24.47 0 0011.35 3c6.35 0 10.39-2.63 14.56-5.37 4.63-3 9.41-6.17 17.48-6.54h.15c8.08.37 12.86 3.51 17.48 6.54 4.17 2.74 8.21 5.38 14.57 5.37 6.36-.01 11.09-2.71 15.53-5.29 4.81-2.79 9.42-5.48 16-5.13 6.58-.35 11.2 2.34 16 5.13 4.44 2.58 9.07 5.27 15.53 5.29 6.46.02 10.4-2.63 14.57-5.37 4.62-3 9.41-6.17 17.47-6.54h.16c8.07.37 12.85 3.51 17.48 6.54 4.17 2.74 8.21 5.38 14.56 5.37 6.35-.01 11.1-2.71 15.54-5.29 4.8-2.79 9.42-5.48 16-5.13 6.59-.35 11.2 2.34 16 5.13l1.24.72.02 4.14zm0 7.73c-1-.57-2.06-1.16-3.07-1.74-4.34-2.53-8.52-5-14.08-4.65h-.2c-5.55-.31-9.73 2.12-14.08 4.65-4.85 2.82-9.89 5.75-17.36 5.77-7.47.02-11.92-2.92-16.55-5.95-4.21-2.76-8.56-5.61-15.57-5.95-7 .34-11.35 3.19-15.55 5.95-4.63 3-9.11 6-16.57 5.95-7.46-.05-12.51-2.95-17.35-5.77-4.36-2.53-8.53-5-14.08-4.65h-.2c-5.55-.31-9.74 2.12-14.09 4.65-4.84 2.82-9.89 5.75-17.35 5.77-7.46.02-11.94-2.92-16.56-5.95-4.21-2.76-8.56-5.61-15.56-5.95-7 .34-11.36 3.19-15.56 5.95-4.63 3-9.11 6-16.56 5.95a26.72 26.72 0 01-11.35-2.55v-4a24.47 24.47 0 0011.35 3c6.35 0 10.39-2.63 14.56-5.37 4.63-3 9.41-6.17 17.48-6.54h.15c8.08.37 12.86 3.51 17.48 6.54 4.17 2.74 8.21 5.38 14.57 5.37 6.36-.01 11.1-2.78 15.53-5.37 4.81-2.8 9.42-5.48 16-5.14 6.58-.34 11.2 2.34 16 5.14 4.44 2.58 9.07 5.27 15.53 5.29 6.46.02 10.4-2.63 14.57-5.37 4.62-3 9.41-6.17 17.47-6.54h.16c8.07.37 12.85 3.51 17.48 6.54 4.17 2.74 8.21 5.38 14.56 5.37 6.35-.01 11.1-2.71 15.54-5.29 4.8-2.8 9.42-5.48 16-5.14 6.59-.34 11.2 2.34 16 5.14l1.24.72.02 4.17zm0 8.46c-1-.56-2.06-1.15-3.07-1.74-4.34-2.53-8.52-5-14.08-4.64h-.2c-5.55-.32-9.73 2.11-14.08 4.64-4.85 2.82-9.89 5.75-17.36 5.77-7.47.02-11.92-2.91-16.55-6-4.21-2.76-8.56-5.61-15.57-5.95-7 .34-11.35 3.19-15.55 5.95-4.63 3-9.11 6-16.57 6-7.46 0-12.51-3-17.35-5.77-4.36-2.53-8.53-5-14.08-4.64h-.2c-5.55-.32-9.74 2.11-14.09 4.64-4.84 2.82-9.89 5.75-17.35 5.77-7.46.02-11.94-2.91-16.56-6-4.21-2.76-8.56-5.61-15.56-5.95-7 .34-11.36 3.19-15.56 5.95-4.63 3-9.11 6-16.56 6a26.722 26.722 0 01-11.35-2.55v-4a24.47 24.47 0 0011.35 3c6.35 0 10.39-2.63 14.56-5.37 4.63-3 9.41-6.17 17.48-6.54h.15c8.08.37 12.86 3.51 17.48 6.54 4.17 2.74 8.21 5.39 14.57 5.37 6.36-.02 11.09-2.71 15.53-5.29 4.81-2.8 9.42-5.48 16-5.14 6.58-.34 11.2 2.34 16 5.14 4.44 2.58 9.07 5.28 15.53 5.29 6.46.01 10.4-2.63 14.57-5.37 4.62-3 9.41-6.17 17.47-6.54h.16c8.07.37 12.85 3.51 17.48 6.54 4.17 2.74 8.21 5.39 14.56 5.37 6.35-.02 11.1-2.71 15.54-5.29 4.8-2.8 9.42-5.48 16-5.14 6.59-.34 11.2 2.34 16 5.14l1.24.72.02 4.09zm0-32.85c-1-.56-2.06-1.15-3.07-1.74-4.34-2.53-8.52-5-14.08-4.64h-.2c-5.55-.32-9.73 2.11-14.08 4.64-4.85 2.82-9.89 5.76-17.36 5.78-7.47.02-11.92-2.92-16.55-6-4.21-2.76-8.56-5.61-15.57-5.95-7 .34-11.35 3.19-15.55 5.95-4.63 3-9.11 6-16.57 6-7.46 0-12.51-3-17.35-5.78-4.36-2.53-8.53-5-14.08-4.64h-.2c-5.55-.32-9.74 2.11-14.09 4.64-4.84 2.82-9.89 5.76-17.35 5.78-7.46.02-11.9-2.95-16.56-5.95-4.21-2.76-8.56-5.61-15.56-5.95-7 .34-11.36 3.19-15.56 5.95-4.63 3-9.11 6-16.56 6a26.87 26.87 0 01-11.35-2.56v-4a24.47 24.47 0 0011.35 3c6.35 0 10.39-2.63 14.56-5.36 4.63-3 9.41-6.18 17.48-6.55h.15c8.08.37 12.86 3.51 17.48 6.55 4.17 2.73 8.21 5.38 14.57 5.36 6.36-.02 11.09-2.7 15.53-5.29 4.81-2.79 9.42-5.48 16-5.13 6.58-.35 11.2 2.34 16 5.13 4.44 2.59 9.07 5.28 15.53 5.29 6.46.01 10.4-2.63 14.57-5.36 4.62-3 9.41-6.18 17.47-6.55h.16c8.07.37 12.85 3.51 17.48 6.55 4.17 2.73 8.21 5.38 14.56 5.36 6.35-.02 11.1-2.7 15.54-5.29 4.8-2.79 9.42-5.48 16-5.13 6.59-.35 11.2 2.34 16 5.13l1.24.72.02 4.04z" fill="#009EE0"/></g></svg>